<svg width="40" height="40" viewBox="0 0 40 40" fill="none" xmlns="http://www.w3.org/2000/svg">
<path d="M20 3.33331C10.8333 3.33331 3.33333 10.8333 3.33333 20C3.33333 29.1666 10.8333 36.6666 20 36.6666C29.1667 36.6666 36.6667 29.1666 36.6667 20C36.6667 10.8333 29.1667 3.33331 20 3.33331ZM26.1667 21.1666L21.1667 26.1666C20.5 26.8333 19.5 26.8333 18.8333 26.1666C18.1667 25.5 18.1667 24.5 18.8333 23.8333L21 21.6666H15C14 21.6666 13.3333 21 13.3333 20C13.3333 19 14 18.3333 15 18.3333H21L18.8333 16.1666C18.1667 15.5 18.1667 14.5 18.8333 13.8333C19.5 13.1666 20.5 13.1666 21.1667 13.8333L26.1667 18.8333C26.8333 19.5 26.8333 20.5 26.1667 21.1666Z" fill="#0061FF"/>
</svg>
